# xmcd
#
# Track frame offsets:
#	150
#	10370
#	22529
#	34845
#	48802
#	57090
#	67100
#	79775
#	92940
#	103075
#	114910
#	125053
#	134547
#	147272
#	158951
#	168631
#	178950
#	187863
#	200124
#	211229
#	222992
#	235553
#	245172
#	254887
#
# Disc length: 3497 seconds
#
# Revision: 0
# Processed by: cddbd v1.5.2PL0 Copyright (c) Steve Scherf et al.
# Submitted via: EasyCDDAExtractor 15.3.0.1
#
DISCID=650da718
DTITLE=Various Artist - Blue Grass That High Lonesome Sound Cd 2
DYEAR=1900
DGENRE=
TTITLE0=Martin Jimmy - Skip Hop And Wobble
TTITLE1=Sauceman Carl - I'll Be An Angel Too
TTITLE2=Harlin and Stanley The Wright Brothers - What Can I Do
TTITLE3=Monroe Bill - Blue Moon Of Kentucky (Phillips LP 7410)
TTITLE4=Osborne Sonny - Blue Waves
TTITLE5=Country Pardners - Another Old Dog In The Race
TTITLE6=Huntsinger Brothers and Jim Shumate - Old Country Baptizing
TTITLE7=Flatt Lester and Earl Scruggs - Dim Lights Thick Smoke And Loud Loud Mus
TTITLE7=ic
TTITLE8=Bill And Ed - My West Virginia Rose
TTITLE9=Lilly Brothers and Don Stover - Tragic Romance
TTITLE10=Lunsford Ray - Mt. Vernon Rag
TTITLE11=Hamrick Billie and Gordon and Red Farrell - Cruel Jealous Heart
TTITLE12=Jim and Jesse - Sing Sing Sing
TTITLE13=McCormick Brothers - Are You Feeling Blue
TTITLE14=Rogers Brothers - I Don't Worry About You Anymore
TTITLE15=Woolum Dave and Noah Crase - Don't Blame Me
TTITLE16=Jackson Leon and Johnny Bryant - White Oak Mountain Breakdown
TTITLE17=Stewart Claude - New River Rain
TTITLE18=Clifton Bill - Take Back The Heart
TTITLE19=Country Pardners - Pleasure Kisses
TTITLE20=Sexton Delmer - I Will Not Be Denied
TTITLE21=Harless Jim - Rock And Roll Fever Ain't Got Me
TTITLE22=Curly Dan and Jim Maynard - You'll Be The One To Cry
TTITLE23=Rogers Brothers - Lost Creek Breakdown
EXTD=
EXTT0=
EXTT1=
EXTT2=
EXTT3=
EXTT4=
EXTT5=
EXTT6=
EXTT7=
EXTT8=
EXTT9=
EXTT10=
EXTT11=
EXTT12=
EXTT13=
EXTT14=
EXTT15=
EXTT16=
EXTT17=
EXTT18=
EXTT19=
EXTT20=
EXTT21=
EXTT22=
EXTT23=
PLAYORDER=
